<?xml version="1.0" standalone="no"?><!DOCTYPE svg PUBLIC "-//W3C//DTD SVG 1.1//EN" "http://www.w3.org/Graphics/SVG/1.1/DTD/svg11.dtd"><svg class="icon" width="72px" height="72.00px" viewBox="0 0 1024 1024" version="1.1" xmlns="http://www.w3.org/2000/svg"><path d="M767.109985 0.001258 255.100547 0.001258C219.757917 0.001258 191.103771 28.645337 191.103771 63.999292L191.103771 303.996952l0 400.000295 0 255.998427c0 35.338854 28.654146 64.003067 63.996775 64.003067l512.009438 0c35.343888 0 63.996775-28.664213 63.996775-64.003067L831.10676 703.997247 831.10676 303.996952 831.10676 63.999292C831.10676 28.645337 802.453873 0.001258 767.109985 0.001258L767.109985 0.001258zM511.105266 991.992174c-17.66691 0-32.010343-14.324556-32.010343-31.9965 0-17.671944 14.343432-32.000275 32.010343-32.000275 17.671944 0 32.006567 14.324556 32.006567 32.000275C543.111833 977.667618 528.77721 991.992174 511.105266 991.992174L511.105266 991.992174zM268.432212 871.804582 268.432212 84.146542 751.099151 84.146542l0 787.65804L268.432212 871.804582 268.432212 871.804582zM259.200468 886.870345" fill="#4076E5" /><path d="M284.167453 521.890525l70.067377-182.451528 26.011471 0 74.670665 182.451528L414.472715 521.614932 397.484091 474.109706l-63.860866 0.076763L316.94543 521.890525 284.167453 521.890525 284.167453 521.890525zM390.877404 444.85152l-23.879713-72.350145L342.113761 445.795333" fill="#4076E5" /><path d="M598.776632 521.890525 598.776632 339.438997l68.824061 0c12.113518 0 21.360363 0.583905 27.753119 1.746682 8.961184 1.492482 16.467639 4.335245 22.524398 8.521997 6.056759 4.190527 10.934382 10.063557 14.627834 17.61154 3.688419 7.550499 5.537033 15.845982 5.537033 24.886446 0 15.515018-4.936768 28.65037-14.811563 39.389697-9.874795 10.745619-27.710333 16.121575-53.514165 16.121575l-34.601422 0.069213-0.210156 74.103119L598.776632 521.889267 598.776632 521.890525zM632.990462 418.908004l36.641316 0c12.116035 0 20.723604-2.256341 25.815158-6.767764 5.091553-4.511423 7.63733-10.860135 7.63733-19.047393 0-5.928401-1.500033-11.002336-4.495064-15.224324-3.000065-4.221988-6.948976-7.011897-11.842958-8.363437-3.158626-0.836847-8.990128-1.2559-17.500799-1.2559l-36.254982 0L632.990462 418.908004 632.990462 418.908004zM622.92313 426.184169" fill="#4076E5" /><path d="M456.993353 521.890525 456.993353 339.438997l68.824061 0c12.113518 0 21.361621 0.583905 27.753119 1.746682 8.961184 1.492482 16.467639 4.335245 22.524398 8.521997 6.056759 4.190527 10.934382 10.063557 14.627834 17.61154 3.688419 7.550499 5.537033 15.845982 5.537033 24.886446 0 15.515018-4.936768 28.65037-14.811563 39.389697-9.874795 10.745619-27.710333 16.121575-53.514165 16.121575l-34.601422 0.069213-0.210156 74.103119L456.993353 521.889267 456.993353 521.890525zM491.207183 418.908004l36.641316 0c12.116035 0 20.723604-2.256341 25.815158-6.767764 5.091553-4.511423 7.63733-10.860135 7.63733-19.047393 0-5.928401-1.500033-11.002336-4.495064-15.224324-3.000065-4.221988-6.948976-7.011897-11.842958-8.363437-3.158626-0.836847-8.990128-1.2559-17.500799-1.2559l-36.254982 0L491.207183 418.908004 491.207183 418.908004zM481.13985 426.184169" fill="#4076E5" /></svg>