<?xml version="1.0" standalone="no"?><!DOCTYPE svg PUBLIC "-//W3C//DTD SVG 1.1//EN" "http://www.w3.org/Graphics/SVG/1.1/DTD/svg11.dtd"><svg class="icon" width="72px" height="65.07px" viewBox="0 0 1133 1024" version="1.1" xmlns="http://www.w3.org/2000/svg"><path d="M1078.857142 0.000014H54.857156A54.828571 54.828571 0 0 0 0.000014 54.857156v731.428562a54.857142 54.857142 0 0 0 54.857142 54.857142h347.428567v91.42857L329.142867 1005.714286v18.285714h475.428565V1005.714286L731.428576 932.57143v-91.42857h347.428566a54.871428 54.871428 0 0 0 54.857142-54.857142v-731.428562A54.857142 54.857142 0 0 0 1078.857142 0.000014z m-18.285714 694.857133H73.14287V73.14287h987.428558v621.714277z" fill="#4076E5" /><path d="M349.342867 616.957149l146.599998-41.071428 15.171428-15.185715-103.199999-103.199998L392.571437 472.857151l-43.22857 144.099998m75.714284-176.657141l103.214284 103.214284L730.000004 341.771438 626.828577 238.57144 425.100008 440.300008m351.428567-206.771426l-41.471428-41.52857c-23.757143-23.757143-37.928571-23.757143-61.671428 0L644.028577 221.428583l103.199998 103.185712 29.357143-29.371428c23.742857-23.757143 23.742857-37.928571 0-61.671427m-282.385711-38.571428c-23.757143-23.757143-37.928571-23.757143-61.685713 0L334.285724 293.085724l-17.142857-17.142856 103.199999-103.199999a60.799999 60.799999 0 0 1 85.999998 0l56.842857 56.842856-17.142857 17.142857-51.799999-51.799999m-116.857142 106.757141l34.414286-34.414285 17.142856 17.142857-34.414285 34.4-2.042857-2.042858 19.228571 19.257143 51.585714-51.614285 17.142857 17.142857-51.5 51.728571 5.257143 5.257142-17.142857 17.142857L334.285724 293.085724l17.142857-17.142856 25.799999 25.814285m240.928569 240.742854l51.585713 51.599999 25.814285 25.8 80.957142-80.971428c23.757143-23.757143 23.757143-37.942857 0-61.685713l-54.285713-54.285714 17.142857-17.142857 59.342856 59.342857a60.814285 60.814285 0 0 1 0 85.999998L712.757147 637.142863l-17.142857 17.142856-17.142857-17.142856-85.142856-85.142856 17.142857-17.142857 7.742857 7.757142m68.799999-34.385713l-51.599999 51.585713-17.142857-17.142857 51.585714-51.614285 17.142857 17.228571m8.571428 25.714286l17.142857 17.142857-42.999999 42.999999-17.142857-17.142857 42.985713-42.999999m0 0z" fill="#4076E5" /></svg>