<?xml version="1.0" standalone="no"?><!DOCTYPE svg PUBLIC "-//W3C//DTD SVG 1.1//EN" "http://www.w3.org/Graphics/SVG/1.1/DTD/svg11.dtd"><svg class="icon" width="72px" height="72.00px" viewBox="0 0 1024 1024" version="1.1" xmlns="http://www.w3.org/2000/svg"><path d="M512.1 63.9C264.6 63.9 64 264.4 64 511.7s200.6 447.8 448.1 447.8S960.2 759 960.2 511.7 759.6 63.9 512.1 63.9z m243.4 413.3c-0.7 11.7-3.7 20.4-9.3 25.9-6.8 6.8-14.7 11.7-23.7 14.7s-16.9 1.1-23.7-5.8c-3-3-4.8-7.1-5.4-12.5-0.7-5.3-1.4-13.1-2.2-23.3-2.1-17.5-5.8-33.4-10.9-47.9-5.1-14.5-16.4-30.9-33.9-49.2-8.5-8.5-17.7-15.8-27.5-21.7-9.8-6-20-10-30.7-12.2-10.7-2.1-21-2-31 0.3-10 2.4-19.3 7.8-27.8 16.3-7.7 7.7-12.6 15.3-14.7 23-2.1 7.7-1.9 16.8 0.6 27.5s7.5 23.2 14.7 37.7c7.2 14.5 16.8 32.4 28.8 53.7 10.2 18.8 19.3 37 27.2 54.7 7.9 17.7 12.8 35 14.7 51.8 1.9 16.8 0.3 33.1-4.8 48.9-5.1 15.8-15.6 31.6-31.3 47.3-15.8 15.8-33.7 26.4-53.7 32-20 5.5-40.5 6.8-61.4 3.8s-41.2-9.4-60.8-19.2c-19.6-9.8-37.1-22.4-52.5-37.7-17.9-17.9-32-36.7-42.2-56.3-10.2-19.6-17.2-38-20.8-55.3-3.6-17.3-4.8-32.3-3.5-45.1 1.3-12.8 4.2-21.5 8.9-26.2 5.1-5.1 12.2-9.6 21.1-13.4 8.9-3.8 16.6-2.1 23 5.1 4.3 4.3 6.3 11.2 6.1 20.8-0.2 9.6 0.6 20.9 2.6 33.9 1.9 13 6.4 27.7 13.4 44.1 7 16.4 19.5 33.6 37.4 51.5 20.5 20.5 43.2 32.5 68.1 36.1 24.9 3.6 45.7-2.9 62.4-19.5 7.7-7.7 13.2-15.6 16.6-23.6 3.4-8.1 4.5-17.7 3.2-28.8-1.3-11.1-5.2-24.4-11.8-40-6.6-15.6-16.3-34.4-29.1-56.6-13.2-22.6-23.8-43-31.7-61.1-7.9-18.1-12.7-34.8-14.4-50.2-1.7-15.3 0.2-29.8 5.8-43.5 5.5-13.6 15.3-27.5 29.4-41.6 14.5-14.5 30.5-24.5 48-30s35.5-7.1 54-4.8c18.6 2.3 36.9 8.3 55 17.9 18.1 9.6 35.1 22.3 50.9 38 16.6 16.6 29.9 33.6 40 50.8 10 17.3 17.1 33.6 21.4 48.9 4.3 15.6 6.1 29.1 5.5 40.8z" fill="#4076E5" /></svg>