<?xml version="1.0" standalone="no"?><!DOCTYPE svg PUBLIC "-//W3C//DTD SVG 1.1//EN" "http://www.w3.org/Graphics/SVG/1.1/DTD/svg11.dtd"><svg class="icon" width="72px" height="72.00px" viewBox="0 0 1024 1024" version="1.1" xmlns="http://www.w3.org/2000/svg"><path d="M803.516831 540.051695c0 94.447177 55.108339 175.83904 134.593212 213.27498-0.365234 4.023709-0.708983 6.600806-1.013856 7.382426-3.728043 9.457199-13.476816 37.93008-61.374603 124.002459-47.90188 86.076471-87.035082 109.310244-119.136769 127.652749-32.110894 18.342506-85.342935 7.275005-119.136769-3.646198-33.803041-10.938595-78.101691-24.161691-104.702366-25.535665-26.583282-1.357605-52.52715 7.347642-72.200661 14.584793-19.669419 7.241244-66.9104 23.427131-86.648364 25.535665-19.733872 2.104442-50.942424 0.361141-79.42042-18.239176-28.482088-18.573718-70.015397-62.082563-108.309687-127.656841-38.291221-65.535402-66.725225-130.337268-86.644272-211.522473-19.923139-81.194412-20.335433-152.033376 14.438495-251.647023 30.117967-86.257554 105.776582-147.953398 148.842441-165.063113 33.107358-13.150458 80.884424-21.717592 132.754767 0.936103 52.505665 22.954476 122.748183 29.185956 122.748183 29.185956s3.890711 1.043525 10.831173 0c6.944555-1.047617 24.749952-0.107422 36.104934-3.654383 11.346797-3.521385 49.439544-14.494764 79.42042-25.531573 29.984968-11.024532 83.457429-18.702624 140.803208-3.642106 58.346335 15.33163 122.744091 83.882 122.744091 83.882s1.940751 3.75362 4.926051 10.147767C847.322365 382.066136 803.516831 455.873007 803.516831 540.051695zM508.403932 252.2271c-0.574962-6.700043-0.927919-13.480908-0.927919-20.343618 0-119.957266 89.589671-218.728932 204.853122-231.883482 0.584169 6.708227 0.932011 13.480908 0.932011 20.34771C713.261146 140.318275 623.671474 239.076642 508.403932 252.2271z" fill="#4076E5" /></svg>