<?xml version="1.0" standalone="no"?><!DOCTYPE svg PUBLIC "-//W3C//DTD SVG 1.1//EN" "http://www.w3.org/Graphics/SVG/1.1/DTD/svg11.dtd"><svg class="icon" width="72px" height="72.00px" viewBox="0 0 1024 1024" version="1.1" xmlns="http://www.w3.org/2000/svg"><path d="M892.243 333.484c-33.239 0-60.747 27.508-60.747 61.893v240.695c0 33.812 26.934 61.893 60.747 61.893 33.239 0 60.747-27.508 60.747-61.893v-240.695c-0.574-34.385-27.508-61.893-60.747-61.893v0zM159.839 333.484c-33.239 0-60.747 27.508-60.747 61.893v240.695c0 33.812 26.934 61.893 60.747 61.893s60.747-27.508 60.747-61.893v-240.695c0-34.385-26.934-61.893-60.747-61.893v0z" fill="#4076E5" /><path d="M257.263 335.203v440.13c0 26.363 21.203 47.566 47.566 47.566h53.87v134.102c0 33.812 26.934 61.893 60.747 61.893 33.239 0 60.747-27.508 60.747-61.893v-134.102h94.56v134.102c0 33.812 26.934 61.893 60.747 61.893 33.239 0 60.747-27.508 60.747-61.893v-134.102h53.87c26.363 0 47.566-21.203 47.566-47.566v-440.13h-540.42z" fill="#4076E5" /><path d="M653.839 107.115l49.858-72.209c2.865-4.586 2.292-9.743-1.719-12.608s-9.169-1.146-12.608 2.865l-51.578 75.074c-34.385-13.181-72.209-21.203-112.325-21.203s-77.94 7.451-112.325 21.203l-51.578-75.074c-2.865-4.586-8.596-5.731-12.608-2.865-4.012 2.865-4.586 8.596-1.719 12.608l50.432 72.209c-79.086 37.251-134.675 107.167-141.552 189.118h539.847c-6.877-81.952-62.466-151.869-142.126-189.118v0zM411.996 221.731c-16.62 0-29.801-13.181-29.801-29.801s13.181-29.801 29.801-29.801c16.62 0 29.801 13.181 29.801 29.801 0 16.046-13.181 29.801-29.801 29.801v0zM643.523 221.731c-16.62 0-29.801-13.181-29.801-29.801s13.181-29.801 29.801-29.801c16.62 0 29.801 13.181 29.801 29.801 0 16.046-13.181 29.801-29.801 29.801v0z" fill="#4076E5" /></svg>